<svg width="2000" height="1048" viewBox="0 0 2000 1048" fill="none" xmlns="http://www.w3.org/2000/svg">
<path d="M1336.92 586.551C1371.06 576.338 1315.72 535.504 1402.16 532.117C1480.78 522.028 1471.49 600.629 1453.95 615.342C1436.4 630.055 1454.43 668.978 1402.16 721.227C1371.71 751.665 1330.45 759.353 1309.38 750.347C1288.3 741.341 1324.59 729.832 1319.93 706.625C1315.26 683.418 1339.95 686.909 1309.38 650.056C1278.8 613.204 1302.78 596.763 1336.92 586.551Z" fill="#CEE6E4" fill-opacity="0.69"/>
<path d="M1152.91 885.515C1165.86 845.493 1149.18 813.375 1183.09 819.942C1183.94 820.108 1184.86 820.223 1185.73 820.357C1208.04 823.824 1204.47 876.924 1197.63 898.575C1190.66 920.643 1164.93 920.241 1152.91 933.458C1140.89 946.675 1121.64 955.453 1093.28 955.124C1064.91 954.794 1088.57 950.121 1079.14 933.458C1072.23 921.235 1100.57 926.747 1118.95 913.686C1137.33 900.626 1149.34 896.548 1152.91 885.515Z" fill="#CEE6E4" fill-opacity="0.69"/>
<path d="M781.078 764.794C829.865 776.954 789.356 738.995 820.174 749.793C850.992 760.59 882.06 755.713 882.06 800.683C882.06 827.705 876.586 851.897 894.765 858.33C912.944 864.762 914.028 922.281 882.06 964.164C850.092 1006.05 782.308 990.285 781.078 964.164C779.849 938.044 821.653 905.617 781.078 858.33C740.504 811.042 732.291 752.634 781.078 764.794Z" fill="#CEE6E4" fill-opacity="0.69"/>
<path d="M743.612 566.271C721.645 542.492 712.737 477.278 734.596 457.162C772.711 430.59 854.27 497.244 821.073 518.861C787.875 540.479 810.417 613.887 803.04 638.657C795.662 663.427 786.995 618.495 761.175 615.342C735.355 612.19 771.072 595.995 743.612 566.271Z" fill="#CEE6E4" fill-opacity="0.69"/>
<path d="M1350.31 513.326L1350.49 513.319L1350.66 513.296C1389.08 508.301 1415.71 528.729 1430.76 552.64C1438.31 564.62 1442.82 577.32 1444.38 587.807C1445.16 593.056 1445.18 597.607 1444.56 601.163C1443.93 604.785 1442.72 606.932 1441.46 608.001C1435.97 612.667 1433.49 619.098 1431.79 626.147C1430.97 629.551 1430.3 633.269 1429.59 637.15L1429.51 637.598C1428.77 641.678 1427.98 645.998 1426.92 650.606C1422.73 668.844 1414.24 691.865 1387.99 718.446C1372.86 733.769 1355.06 743.343 1338.49 747.953C1321.81 752.593 1306.8 752.097 1297.1 747.895C1292.63 745.962 1291.06 743.619 1290.48 741.129C1289.81 738.218 1290.32 734.434 1291.6 729.378C1292.01 727.732 1292.53 725.909 1293.07 723.982C1294.06 720.45 1295.15 716.57 1295.93 712.794C1297.17 706.746 1297.84 700.134 1296.5 693.363C1295 685.801 1290.33 681.266 1284.33 678.179C1279.36 675.627 1273.11 673.884 1266.65 672.085C1265.68 671.815 1264.71 671.544 1263.74 671.269C1248.48 666.956 1230.75 661.093 1215.85 642.908C1208.58 634.026 1206.58 625.914 1207.65 618.629C1208.74 611.19 1213.12 603.963 1219.84 597.205C1233.33 583.64 1255.08 573.158 1272.27 567.949C1277.11 566.481 1280.82 564.419 1283.65 561.793C1286.49 559.159 1288.27 556.136 1289.49 553.04C1290.68 550.012 1291.39 546.813 1292.02 543.895L1292.06 543.72C1292.71 540.771 1293.3 538.052 1294.24 535.41C1296.08 530.301 1299.25 525.412 1307.07 521.451C1315.15 517.361 1328.33 514.198 1350.31 513.326ZM1111.97 869.093C1115.28 858.714 1118.26 850.524 1121.38 844.146C1124.49 837.771 1127.63 833.463 1131.15 830.628C1137.94 825.16 1147.37 824.222 1164.97 827.916C1165.72 828.073 1166.57 828.197 1167.24 828.294C1167.46 828.326 1167.66 828.355 1167.83 828.382C1171.74 828.992 1174.93 831.793 1177.39 837.16C1179.87 842.561 1181.3 849.955 1181.82 858.276C1182.86 874.902 1180.24 893.871 1176.88 904.653C1173.8 914.534 1166.65 919.523 1157.89 923.868C1155.96 924.824 1154 925.726 1152 926.651C1151.71 926.78 1151.43 926.91 1151.15 927.041C1148.87 928.092 1146.54 929.18 1144.28 930.356C1139.78 932.7 1135.32 935.518 1131.77 939.477C1120.34 952.206 1101.77 961.033 1073.52 960.7C1066.72 960.62 1062.98 959.199 1060.78 957.448C1058.6 955.723 1057.33 953.216 1056.46 949.611C1055.86 947.154 1055.53 944.639 1055.16 941.815C1054.96 940.228 1054.74 938.543 1054.45 936.716C1053.7 931.924 1052.52 926.659 1049.75 921.706C1047.75 918.121 1048.26 916.322 1048.88 915.325C1049.74 913.943 1051.74 912.57 1054.95 911.519C1060.27 909.781 1062.06 905.716 1063.22 902.843C1063.27 902.723 1063.32 902.606 1063.37 902.49C1064.5 899.699 1065.15 898.086 1066.99 896.844C1067.13 896.749 1067.81 896.398 1069.65 896.195C1071.43 895.998 1073.97 895.973 1077.54 896.239C1090.52 897.207 1098.59 893.739 1103.73 887.618C1107.81 882.77 1109.71 876.488 1111.23 871.48C1111.49 870.645 1111.73 869.845 1111.97 869.093ZM711.046 779.71C724.202 783.032 734.356 782.4 742.676 779.483C750.925 776.592 756.987 771.577 762.083 766.884C763.124 765.926 764.109 764.999 765.055 764.108C768.937 760.455 772.161 757.419 775.84 755.425C779.975 753.183 784.673 752.321 791.537 754.758C798.566 757.253 805.617 758.969 812.13 760.554C813.172 760.807 814.199 761.058 815.211 761.307C822.676 763.148 829.229 764.942 834.749 767.71C840.163 770.425 844.465 774.023 847.481 779.456C850.535 784.956 852.461 792.682 852.461 803.956C852.461 809.379 852.249 814.672 852.043 819.829C851.985 821.266 851.928 822.692 851.876 824.108C851.641 830.528 851.51 836.743 851.998 842.339C852.485 847.921 853.61 853.219 856.107 857.668C858.675 862.245 862.582 865.72 868.165 867.721C871.04 868.751 874.059 872.215 876.149 879.033C878.183 885.669 879.042 894.623 878.319 904.915C876.874 925.486 869.173 950.591 853.266 971.703C838.053 991.894 808.625 998.673 781.964 996.664C768.747 995.668 756.663 992.529 747.939 988.137C738.917 983.595 734.758 978.42 734.549 973.924C734.182 966.033 730.967 959.537 725.985 953.58C721.09 947.727 714.337 942.22 706.671 936.28C705.055 935.027 703.388 933.748 701.675 932.434C687.009 921.18 668.998 907.359 650.622 885.665C631.234 862.774 634.326 833.515 648.736 810.994C663.267 788.285 688.273 773.96 711.046 779.71ZM668.742 537.466C664.036 532.307 662.433 525.884 663.204 518.428C663.985 510.862 667.211 502.418 671.981 493.794C681.455 476.665 696.446 459.843 707.472 449.529C715.973 443.643 727.161 442.719 739.248 445.513C751.411 448.325 763.975 454.809 774.402 462.877C784.885 470.989 792.788 480.373 796.096 488.693C797.736 492.819 798.146 496.422 797.477 499.402C796.832 502.28 795.092 504.986 791.596 507.292C781.949 513.656 776.593 523.696 773.705 534.989C770.825 546.253 770.295 559.153 770.588 571.836C770.777 580.057 771.324 588.424 771.837 596.275C772.112 600.474 772.377 604.525 772.572 608.328C773.15 619.573 773.106 628.501 771.433 634.188C770.592 637.048 769.675 638.157 769.152 638.551C768.822 638.799 768.35 639.01 767.188 638.735C765.882 638.424 764.127 637.571 761.851 636.037C759.619 634.533 757.15 632.559 754.423 630.264C753.113 629.161 751.742 627.983 750.324 626.763C745.964 623.015 741.149 618.875 736.214 615.326C729.68 610.627 722.351 606.512 714.703 605.566C709.114 604.875 705.436 602.587 702.478 599.082C699.357 595.385 696.978 590.27 694.341 583.725C693.76 582.283 693.172 580.784 692.565 579.237C687.768 567.014 681.787 551.772 668.742 537.466Z" stroke="#7E9591" stroke-width="8"/>
<path d="M1035.37 755.84C1081.48 745.107 1113.14 692.196 1096.9 636.115C1067.25 533.754 893.692 585.739 920.566 687.735C937.086 750.434 989.264 766.573 1035.37 755.84Z" fill="#D1B680" stroke="black" stroke-width="8" stroke-linecap="round" stroke-linejoin="round"/>
<path d="M1064.81 691.924C1064.13 628.368 1062.08 497.405 1059.32 482.005" stroke="black" stroke-width="8" stroke-linecap="round" stroke-linejoin="round"/>
<path d="M838.428 519.64C876.493 579.083 956.928 699.956 974.14 707.9" stroke="black" stroke-width="8" stroke-linecap="round" stroke-linejoin="round"/>
<path d="M1095.78 633.01C1122.27 556.513 1131.63 512.454 1145.02 433.165" stroke="black" stroke-width="8" stroke-linecap="round" stroke-linejoin="round"/>
<path d="M917.042 677.282C853.287 625.309 824.631 591.707 776.364 529.984" stroke="black" stroke-width="8" stroke-linecap="round" stroke-linejoin="round"/>
<path d="M1028.34 578.808V529.571" stroke="black" stroke-width="8" stroke-linecap="round" stroke-linejoin="round"/>
<path d="M950.97 598.668L916.628 554.81" stroke="black" stroke-width="8" stroke-linecap="round" stroke-linejoin="round"/>
<path d="M930.058 687.056C945.046 703.266 979.364 729.633 1020.71 719.141C1070.82 706.427 1090.98 669.309 1088.97 647.053" stroke="black" stroke-width="8" stroke-linecap="round" stroke-linejoin="round"/>
<path d="M1006.83 619.769C1039.1 616.873 1057.7 644.005 1061.44 688.867C1063.65 715.348 1037.44 724.864 1029.17 702.107C1030.9 730.351 989.863 735.208 975.795 712.037C969.037 718.106 955.278 723.576 949.315 702.107C944.669 685.384 952.757 674.31 965.451 657.421C965.451 641.285 974.554 622.666 1006.83 619.769Z" fill="#C7D454" stroke="black" stroke-width="8" stroke-linecap="round" stroke-linejoin="round"/>
<path d="M981.588 645.836C972.514 662.963 962.143 694.985 977.036 713.279" stroke="black" stroke-width="8" stroke-linecap="round" stroke-linejoin="round"/>
<circle cx="1005.17" cy="704.176" r="3.72381" fill="black"/>
<circle cx="987.794" cy="705.831" r="3.72381" fill="black"/>
<path d="M1019 667C1019 667 1026.84 678.379 1028.34 689.778C1029.83 701.176 1028.34 708 1028.34 708" stroke="black" stroke-width="8" stroke-linecap="round" stroke-linejoin="round"/>
<path d="M636.097 476.796C624.397 463.411 631.815 444.195 639.388 432.445C641.81 428.687 642.916 424.009 641.997 419.634C566.824 61.8664 970.169 -69.4777 1168.32 160.754C1171.86 164.863 1177.39 166.837 1182.8 166.55C1196.68 165.816 1219.73 168.219 1227.8 186.213C1236.1 204.696 1219.16 226.051 1205.74 237.48C1200.94 241.577 1198.25 248.101 1199.49 254.295C1259.94 556.799 846.838 691.979 681.731 496.709C679.49 494.059 676.389 492.231 672.931 491.939L672.915 491.937C663.344 491.128 647.448 489.783 636.097 476.796Z" fill="#FEED5F" stroke="black" stroke-width="8" stroke-linecap="round" stroke-linejoin="round"/>
<path d="M1135 621.94C1131.22 616.703 1118.74 609.371 1099 621.94C1099 624.428 1102.24 630.032 1115.18 632.546C1128.12 635.06 1133.79 626.523 1135 621.94Z" fill="#B8D95B" stroke="#3C3E29" stroke-width="8" stroke-linecap="round"/>
<path d="M899.576 710.648C906.019 709.426 918 701.17 914.378 677.913C912.054 676.863 905.49 677.439 897.821 688.147C890.151 698.855 895.795 707.609 899.576 710.648Z" fill="#B8D95B" stroke="#3C3E29" stroke-width="8" stroke-linecap="round"/>
<path d="M1092.79 594.163C1101.41 601.863 1098.78 613.64 1096.39 618.566C1093.32 617.484 1085.66 614.41 1079.55 610.762C1073.43 607.115 1073.61 597.648 1074.46 593.371C1076.98 590.427 1084.17 586.463 1092.79 594.163Z" fill="#B8D95B" stroke="#44481F" stroke-width="8" stroke-linecap="round"/>
<path d="M916.141 650.048C918.637 658.658 909.882 666.26 905.193 668.984C903.366 667.122 899.013 662.198 896.218 657.405C893.423 652.612 898.917 645.818 902.013 643.02C905.682 641.775 913.645 641.438 916.141 650.048Z" fill="#B8D95B" stroke="#44481F" stroke-width="8" stroke-linecap="round"/>
<circle cx="888.276" cy="521.772" r="6.79675" fill="#FFC34F" fill-opacity="0.5"/>
<circle cx="954.302" cy="479.05" r="6.79675" fill="#FFC34F" fill-opacity="0.5"/>
<circle cx="1008.68" cy="502.353" r="6.79675" fill="#FFC34F" fill-opacity="0.5"/>
<circle cx="874.683" cy="433.415" r="6.79675" fill="#FFC34F" fill-opacity="0.5"/>
<circle cx="991.199" cy="347.97" r="6.79675" fill="#FFC34F" fill-opacity="0.5"/>
<circle cx="1067.9" cy="422.734" r="6.79675" fill="#FFC34F" fill-opacity="0.5"/>
<circle cx="1144.61" cy="399.431" r="6.79675" fill="#FFC34F" fill-opacity="0.5"/>
<circle cx="776.616" cy="479.05" r="6.79675" fill="#FFC34F" fill-opacity="0.5"/>
<circle cx="819.338" cy="526.627" r="6.79675" fill="#FFC34F" fill-opacity="0.5"/>
<circle cx="1151.41" cy="313.986" r="6.79675" fill="#FFC34F" fill-opacity="0.5"/>
<circle cx="1114.51" cy="456.718" r="6.79675" fill="#FFC34F" fill-opacity="0.5"/>
<circle cx="716.416" cy="472.253" r="6.79675" fill="#FFC34F" fill-opacity="0.5"/>
</svg>
