<svg width="455" height="54" viewBox="0 0 455 54" fill="none" xmlns="http://www.w3.org/2000/svg">
<path d="M24.1579 32.6842H212.447" stroke="#C1C1C1"/>
<path d="M242.289 32.6842H430.579" stroke="#C1C1C1"/>
<path d="M218.132 25.579H232.342V35.5263C232.342 37.8808 230.433 39.7895 228.079 39.7895H222.395C220.04 39.7895 218.132 37.8808 218.132 35.5263V25.579Z" stroke="black" stroke-width="2.84211"/>
<path d="M235.184 28.4618C235.753 28.4328 238.026 27.8746 238.026 31.9854C238.026 36.0962 235.753 35.4799 235.184 35.5089" stroke="black" stroke-width="2.84211"/>
<path d="M243.429 14.3922C243.035 13.588 242.297 12.9573 241.596 12.5251C240.668 11.9533 239.489 11.5272 238.246 11.4045C236.996 11.2811 235.613 11.4593 234.356 12.1843C233.08 12.9198 232.054 14.1489 231.428 15.9051C230.881 17.4396 230.644 18.7791 230.955 19.8537C231.125 20.4423 231.458 20.9414 231.947 21.2958C232.414 21.6349 232.934 21.7766 233.391 21.8286C234.264 21.9278 235.208 21.729 235.933 21.5393C236.316 21.4392 236.69 21.3267 237.015 21.2286L237.031 21.2238C237.362 21.1239 237.628 21.0437 237.851 20.9867C239.694 20.5169 242.653 20.4885 246.273 21.0159C247.51 21.1962 248.622 20.9421 249.464 20.2607C250.287 19.5954 250.692 18.6515 250.791 17.7465C250.976 16.0455 250.067 13.8354 247.816 13.3762C246.061 13.0181 244.503 13.8319 243.657 14.2742C243.586 14.3113 243.52 14.3458 243.459 14.3767C243.449 14.382 243.439 14.3871 243.429 14.3922ZM243.663 15.046C243.663 15.0461 243.662 15.0445 243.66 15.041C243.662 15.0442 243.663 15.0459 243.663 15.046Z" stroke="#E1E1E1" stroke-width="2.84211"/>
</svg>
