<svg width="189" height="48" viewBox="0 0 189 48" fill="none" xmlns="http://www.w3.org/2000/svg">
<path d="M33.296 16.992C32.5067 16.5867 31.6427 16.2347 30.704 15.936C29.7653 15.6373 28.848 15.488 27.952 15.488C26.7147 15.488 25.7227 15.776 24.976 16.352C24.2507 16.928 23.888 17.696 23.888 18.656C23.888 19.3813 24.1227 20 24.592 20.512C25.0613 21.0027 25.68 21.4293 26.448 21.792C27.216 22.1547 28.016 22.496 28.848 22.816C29.5733 23.0933 30.288 23.4027 30.992 23.744C31.696 24.0853 32.3253 24.512 32.88 25.024C33.456 25.536 33.904 26.1653 34.224 26.912C34.5653 27.6587 34.736 28.5867 34.736 29.696C34.736 30.912 34.4267 32.0213 33.808 33.024C33.2107 34.0267 32.3467 34.816 31.216 35.392C30.0853 35.968 28.7413 36.256 27.184 36.256C26.16 36.256 25.1787 36.1387 24.24 35.904C23.3227 35.6693 22.4693 35.3707 21.68 35.008C20.8907 34.624 20.1867 34.2293 19.568 33.824L20.944 31.392C21.456 31.7547 22.0427 32.1067 22.704 32.448C23.3653 32.768 24.0587 33.0347 24.784 33.248C25.5093 33.44 26.2133 33.536 26.896 33.536C27.6213 33.536 28.336 33.408 29.04 33.152C29.7653 32.8747 30.3627 32.4587 30.832 31.904C31.3013 31.3493 31.536 30.6133 31.536 29.696C31.536 28.9067 31.3227 28.256 30.896 27.744C30.4907 27.2107 29.9467 26.7627 29.264 26.4C28.5813 26.016 27.856 25.6747 27.088 25.376C26.3627 25.0987 25.6267 24.8 24.88 24.48C24.1333 24.1387 23.44 23.7333 22.8 23.264C22.16 22.7733 21.648 22.176 21.264 21.472C20.88 20.768 20.688 19.9147 20.688 18.912C20.688 17.696 20.976 16.64 21.552 15.744C22.1493 14.8267 22.96 14.112 23.984 13.6C25.008 13.0667 26.1813 12.7787 27.504 12.736C28.9973 12.736 30.3093 12.9173 31.44 13.28C32.592 13.6427 33.6053 14.0907 34.48 14.624L33.296 16.992ZM47.2908 22.752L51.1948 31.68L50.6188 31.744L54.2668 22.752H57.1788L51.0988 36.8L46.8428 27.712L42.9708 36.8L36.8268 22.752H39.7388L43.8668 32.096L42.8428 31.904L45.7868 25.056L44.7308 22.752H47.2908ZM66.2048 36.32C64.6901 36.32 63.3888 36.0213 62.3008 35.424C61.2128 34.8053 60.3701 33.9733 59.7728 32.928C59.1968 31.8613 58.9088 30.6453 58.9088 29.28C58.9088 27.9787 59.2394 26.7947 59.9008 25.728C60.5621 24.6613 61.4474 23.808 62.5568 23.168C63.6661 22.528 64.9034 22.208 66.2688 22.208C68.0181 22.208 69.4688 22.72 70.6208 23.744C71.7728 24.768 72.5514 26.176 72.9568 27.968L62.0448 31.808L61.3408 30.048L70.3008 26.784L69.6608 27.2C69.4048 26.496 68.9781 25.888 68.3808 25.376C67.7834 24.8427 67.0048 24.576 66.0448 24.576C65.2341 24.576 64.5088 24.7787 63.8688 25.184C63.2288 25.568 62.7274 26.1013 62.3648 26.784C62.0021 27.4667 61.8208 28.2453 61.8208 29.12C61.8208 30.0373 62.0128 30.848 62.3968 31.552C62.7808 32.2347 63.3034 32.7787 63.9648 33.184C64.6474 33.568 65.4154 33.76 66.2688 33.76C66.8448 33.76 67.3994 33.6533 67.9328 33.44C68.4874 33.2267 68.9994 32.9493 69.4688 32.608L70.8448 34.816C70.1834 35.264 69.4368 35.6267 68.6048 35.904C67.7941 36.1813 66.9941 36.32 66.2048 36.32ZM82.8298 36.32C81.3151 36.32 80.0138 36.0213 78.9258 35.424C77.8378 34.8053 76.9951 33.9733 76.3978 32.928C75.8218 31.8613 75.5338 30.6453 75.5338 29.28C75.5338 27.9787 75.8644 26.7947 76.5258 25.728C77.1871 24.6613 78.0724 23.808 79.1818 23.168C80.2911 22.528 81.5284 22.208 82.8938 22.208C84.6431 22.208 86.0938 22.72 87.2458 23.744C88.3978 24.768 89.1764 26.176 89.5818 27.968L78.6698 31.808L77.9658 30.048L86.9258 26.784L86.2858 27.2C86.0298 26.496 85.6031 25.888 85.0058 25.376C84.4084 24.8427 83.6298 24.576 82.6698 24.576C81.8591 24.576 81.1338 24.7787 80.4938 25.184C79.8538 25.568 79.3524 26.1013 78.9898 26.784C78.6271 27.4667 78.4458 28.2453 78.4458 29.12C78.4458 30.0373 78.6378 30.848 79.0218 31.552C79.4058 32.2347 79.9284 32.7787 80.5898 33.184C81.2724 33.568 82.0404 33.76 82.8938 33.76C83.4698 33.76 84.0244 33.6533 84.5578 33.44C85.1124 33.2267 85.6244 32.9493 86.0938 32.608L87.4698 34.816C86.8084 35.264 86.0618 35.6267 85.2298 35.904C84.4191 36.1813 83.6191 36.32 82.8298 36.32ZM94.5908 16.928H97.5668V22.816H101.215V25.152H97.5668V36H94.5908V25.152H92.1588V22.816H94.5908V16.928ZM108.523 36.256C107.584 36.256 106.667 36.096 105.771 35.776C104.896 35.4347 104.171 34.9333 103.595 34.272L104.843 32.544C105.397 33.0773 105.963 33.4827 106.539 33.76C107.136 34.016 107.723 34.144 108.299 34.144C108.725 34.144 109.12 34.0907 109.483 33.984C109.845 33.8773 110.133 33.7067 110.347 33.472C110.581 33.216 110.699 32.8747 110.699 32.448C110.699 31.9787 110.539 31.6053 110.219 31.328C109.92 31.0507 109.525 30.8267 109.035 30.656C108.565 30.4853 108.064 30.3253 107.531 30.176C106.443 29.8133 105.611 29.312 105.035 28.672C104.459 28.032 104.171 27.2533 104.171 26.336C104.171 25.632 104.341 24.9813 104.683 24.384C105.045 23.7653 105.568 23.264 106.251 22.88C106.955 22.496 107.819 22.304 108.843 22.304C109.76 22.304 110.581 22.4213 111.307 22.656C112.032 22.8693 112.715 23.232 113.355 23.744L112.171 25.6C111.787 25.1947 111.328 24.896 110.795 24.704C110.261 24.512 109.781 24.4053 109.355 24.384C108.992 24.3627 108.64 24.416 108.299 24.544C107.979 24.672 107.712 24.8533 107.499 25.088C107.285 25.3227 107.179 25.6 107.179 25.92C107.179 26.368 107.328 26.7307 107.627 27.008C107.925 27.2853 108.309 27.5093 108.779 27.68C109.269 27.8293 109.749 27.9893 110.219 28.16C110.88 28.352 111.467 28.608 111.979 28.928C112.491 29.248 112.896 29.6427 113.195 30.112C113.515 30.5813 113.675 31.168 113.675 31.872C113.675 32.6613 113.483 33.3973 113.099 34.08C112.736 34.7413 112.171 35.2747 111.403 35.68C110.656 36.064 109.696 36.256 108.523 36.256ZM120.53 33.216C120.061 34.3253 119.591 35.424 119.122 36.512C118.674 37.6213 118.215 38.7413 117.746 39.872H115.346C115.773 38.7413 116.189 37.6213 116.594 36.512C116.999 35.424 117.415 34.3253 117.842 33.216H120.53ZM145.219 34.784C144.622 35.2533 143.907 35.6267 143.075 35.904C142.243 36.1813 141.411 36.32 140.579 36.32C139.128 36.32 137.859 36.032 136.771 35.456C135.683 34.88 134.83 34.08 134.211 33.056C133.614 32.0107 133.315 30.784 133.315 29.376C133.315 27.968 133.635 26.7413 134.275 25.696C134.936 24.6507 135.79 23.8507 136.835 23.296C137.902 22.72 139.043 22.432 140.259 22.432C141.326 22.432 142.275 22.5813 143.107 22.88C143.96 23.1787 144.686 23.584 145.283 24.096L143.811 26.016C143.427 25.7173 142.958 25.4507 142.403 25.216C141.848 24.9813 141.219 24.864 140.515 24.864C139.747 24.864 139.032 25.0667 138.371 25.472C137.731 25.856 137.219 26.3893 136.835 27.072C136.472 27.7547 136.291 28.5227 136.291 29.376C136.291 30.1867 136.483 30.944 136.867 31.648C137.251 32.3307 137.784 32.8747 138.467 33.28C139.15 33.664 139.928 33.856 140.803 33.856C141.379 33.856 141.902 33.7707 142.371 33.6C142.862 33.4293 143.299 33.1947 143.683 32.896L145.219 34.784ZM147.909 29.248C147.909 27.9253 148.218 26.7307 148.837 25.664C149.477 24.5973 150.351 23.7547 151.461 23.136C152.57 22.5173 153.829 22.208 155.237 22.208C156.687 22.208 157.957 22.5173 159.045 23.136C160.133 23.7547 160.975 24.5973 161.573 25.664C162.17 26.7307 162.469 27.9253 162.469 29.248C162.469 30.5707 162.17 31.776 161.573 32.864C160.975 33.9307 160.122 34.7733 159.013 35.392C157.925 36.0107 156.655 36.32 155.205 36.32C153.797 36.32 152.538 36.032 151.429 35.456C150.341 34.8587 149.477 34.0373 148.837 32.992C148.218 31.9253 147.909 30.6773 147.909 29.248ZM150.885 29.28C150.885 30.1333 151.077 30.912 151.461 31.616C151.845 32.2987 152.357 32.8427 152.997 33.248C153.658 33.6533 154.383 33.856 155.173 33.856C156.005 33.856 156.741 33.6533 157.381 33.248C158.042 32.8427 158.554 32.2987 158.917 31.616C159.279 30.912 159.461 30.1333 159.461 29.28C159.461 28.4267 159.279 27.6587 158.917 26.976C158.554 26.272 158.042 25.7173 157.381 25.312C156.741 24.8853 156.005 24.672 155.173 24.672C154.362 24.672 153.626 24.8853 152.965 25.312C152.325 25.7387 151.813 26.304 151.429 27.008C151.066 27.6907 150.885 28.448 150.885 29.28ZM164.994 34.304C164.994 33.8347 165.165 33.44 165.506 33.12C165.869 32.7787 166.264 32.608 166.69 32.608C167.074 32.608 167.437 32.7787 167.778 33.12C168.141 33.44 168.322 33.8347 168.322 34.304C168.322 34.816 168.141 35.232 167.778 35.552C167.437 35.8507 167.074 36 166.69 36C166.264 36 165.869 35.8507 165.506 35.552C165.165 35.232 164.994 34.816 164.994 34.304Z" fill="white"/>
</svg>
