<svg width="27" height="27" viewBox="0 0 27 27" fill="none" xmlns="http://www.w3.org/2000/svg">
<path d="M9.92 22.8768C11.6091 22.8875 13.2836 22.5626 14.8462 21.9211C16.4088 21.2796 17.8285 20.3342 19.0229 19.1398C20.2174 17.9453 21.1627 16.5256 21.8043 14.963C22.4458 13.4004 22.7706 11.726 22.76 10.0368V9.44683C23.6356 8.80532 24.3935 8.01701 25 7.11683C24.1755 7.47743 23.3031 7.71658 22.41 7.82683C23.3569 7.26261 24.0674 6.3745 24.41 5.32683C23.5275 5.85627 22.5598 6.22847 21.55 6.42683C20.8699 5.7022 19.97 5.22189 18.9895 5.06022C18.0089 4.89855 17.0024 5.06453 16.1257 5.53249C15.249 6.00044 14.551 6.74428 14.1396 7.64891C13.7282 8.55354 13.6264 9.56853 13.85 10.5368C12.056 10.4488 10.3007 9.98385 8.69836 9.17234C7.096 8.36082 5.68254 7.22091 4.55 5.82683C3.97892 6.81801 3.80583 7.98916 4.06576 9.10316C4.32569 10.2172 4.99923 11.1908 5.95 11.8268C5.24861 11.7998 4.56345 11.6079 3.95 11.2668V11.3168C3.94377 12.3527 4.29272 13.3594 4.9387 14.1691C5.58469 14.9789 6.48867 15.5428 7.5 15.7668C6.84764 15.9423 6.16429 15.9696 5.5 15.8468C5.79278 16.7302 6.35168 17.5014 7.10005 18.0546C7.84841 18.6078 8.74959 18.916 9.68 18.9368C8.08921 20.2174 6.11209 20.9222 4.07 20.9368C3.71195 20.9265 3.35475 20.8964 3 20.8468C5.06696 22.1637 7.4692 22.858 9.92 22.8468" fill="white"/>
</svg>
